<svg width="80" height="80" viewBox="0 0 80 80" fill="none" xmlns="http://www.w3.org/2000/svg">
<g clip-path="url(#clip0_1_237)">
<path d="M28.9257 8.30243L25.424 10.3208L28.4336 15.5307L31.9314 13.5113L28.9257 8.30243ZM64.9781 17.9626L59.7668 20.9698L61.7882 24.4681L66.9971 21.4624L64.9781 17.9626ZM46.6229 14.3566C45.9733 14.1909 45.308 14.0526 44.6272 13.9564C44.6076 13.9512 44.589 13.942 44.5683 13.9407C36.3659 12.7207 28.3096 17.4532 25.086 25.081C22.4984 31.2221 23.5782 37.7087 26.9616 42.6066C28.3439 44.6163 28.9938 47.0399 28.8022 49.4716L25.6479 61.2438L30.1213 62.4424C30.4903 63.7967 31.5243 64.9213 32.9703 65.3087C34.4163 65.6962 35.8741 65.2393 36.8707 64.2509L41.3442 65.4496L43.4471 57.6014L43.6315 57.6509L44.2561 55.32C45.0268 52.4436 47.2989 49.9443 50.3319 48.3408C54.4527 45.9583 58.1434 41.9949 59.5655 36.6876C62.1625 26.9951 56.3278 16.8603 46.6229 14.3566ZM45.5714 18.2807C53.1831 20.2066 57.6707 28.0627 55.6414 35.6361C54.5405 39.7446 51.6679 42.8527 48.3274 44.7797L48.3733 44.8593C45.1077 46.5723 42.5428 49.3719 41.1213 52.7746L32.5394 50.475C33.0088 46.9964 32.4389 43.355 30.3393 40.29C27.6609 36.4179 26.7831 31.4301 28.8153 26.6081C31.3288 20.6574 37.6754 17.0313 44.0029 17.9971C44.5292 18.0623 45.0514 18.1573 45.567 18.2816L45.5714 18.2807ZM14.4386 24.5959L13.3872 28.52L19.2733 30.0971L20.3247 26.1731L14.4386 24.5959ZM63.4895 37.739L62.4381 41.6631L68.3242 43.2403L69.3756 39.3162L63.4895 37.739ZM20.9746 43.3681L15.7657 46.3738L17.7866 49.8741L22.9921 46.8654L20.9746 43.3681ZM54.3292 52.3055L50.8314 54.3249L53.8371 59.5338L57.3374 57.5129L54.3292 52.3055ZM31.6743 54.449L39.5225 56.552L38.471 60.476L30.6229 58.3731L31.6743 54.449Z" fill="#AA56B9"/>
</g>
<defs>
<clipPath id="clip0_1_237">
<rect width="65" height="65" fill="white" transform="translate(16.8232) rotate(15)"/>
</clipPath>
</defs>
</svg>
