<svg width="54" height="64" viewBox="0 0 54 64" fill="none" xmlns="http://www.w3.org/2000/svg">
<path d="M2 34.1838C10.4943 34.1838 15.5585 33.9569 24.0021 35.0197M24.0021 35.0197C24.1078 35.033 24.0021 34.7571 24.0021 35.0197ZM24.0021 35.0197C24.0021 36.0365 23.7026 37.645 24.0021 38.7678C26.0021 46.2678 25.5021 45.2909 30.004 58.844C30.004 59.5651 29.9513 60.2912 30.1124 60.9958C30.2505 61.6004 30.2928 60.7951 30.3678 60.5701C30.934 58.8715 32.41 57.5201 33.3555 56.0343C35.4855 52.6872 36.9303 48.9847 38.3402 45.2909C40.7671 38.9323 42.4972 32.3661 44.2924 25.8089C45.8838 19.9957 47.8413 14.3188 49.7879 8.61794C50.1594 7.53002 50.5445 6.43827 50.8948 5.34384C51.1287 4.61263 51.5991 3.75194 51.5991 2.97534" stroke="#AA56B9" stroke-width="4" stroke-linecap="round"/>
<path d="M2.27869 34.0444C3.46234 33.7156 4.65081 32.9705 5.74629 32.4499C8.63654 31.0763 10.6339 29.6869 13.5021 28.2678C16.2392 26.9136 19.19 24.9707 22.0021 23.7678C24.7013 22.6133 27.6804 20.5774 30.0021 18.7678C32.4676 16.8461 35.0473 15.1985 37.5021 13.2678C41.1842 10.3718 45.0661 8.7131 48.3638 5.37472C49.2338 4.49392 50.1918 3.68451 51.0109 2.75854C51.2437 2.49541 52.0752 2 51.3205 2" stroke="#AA56B9" stroke-width="4" stroke-linecap="round"/>
<path d="M50.5021 5.76782C50.5021 6.56681 50.0832 7.15018 49.5523 7.83178C47.4258 10.5618 45.1834 13.1776 42.6961 15.7386C39.541 18.9872 36.148 22.104 33.05 25.383C31.5756 26.9436 30.3587 28.6785 28.7068 30.1331C27.9987 30.7566 27.2589 31.4229 26.6391 32.0984C26.1605 32.62 24.258 35.0746 23.5021 35.2678" stroke="#AA56B9" stroke-width="4" stroke-linecap="round"/>
</svg>
