<svg width="120" height="125" viewBox="0 0 120 125" fill="none" xmlns="http://www.w3.org/2000/svg">
<path d="M55.6473 55.6889C55.7731 54.1678 57.1294 52.6883 57.9355 51.4901C59.8081 48.7068 61.1904 45.6139 62.8762 42.716C64.1042 40.6051 65.4481 38.4061 66.3132 36.1072C66.3779 35.9353 66.7428 34.8604 66.7428 35.0152C66.7428 40.4607 67.2472 45.9214 67.2472 51.3583C67.2472 52.1851 67.3723 53.001 67.4153 53.8249C67.4303 54.1131 68.0123 53.9886 68.1998 54.0037C69.1313 54.0788 69.9452 54.5081 70.8149 54.8039C72.542 55.3915 74.2782 55.9208 76.0264 56.442C78.2855 57.1155 80.6354 57.4696 82.8724 58.146C83.6187 58.3717 84.3498 58.6595 85.0298 59.0404C85.6676 59.3975 86.6305 59.4097 85.4221 59.6617C81.9712 60.3814 78.7398 62.0953 75.4474 63.3144C74.3432 63.7233 72.8645 63.9442 71.8796 64.5759C71.6181 64.7437 70.9378 64.8777 70.8149 65.1784C70.8039 65.2054 71.5743 66.1118 71.6368 66.2517C72.4661 68.1093 73.1088 70.1306 73.5047 72.1262C74.0246 74.7462 74.5212 77.3479 75.2232 79.9212C75.85 82.2184 76.1727 84.6233 76.456 86.9818C76.5563 87.8168 76.5972 88.6916 76.8296 89.5049C76.8358 89.5264 77.0881 90.1269 76.895 89.9756C76.1395 89.3833 75.539 88.4991 74.8123 87.848C73.2847 86.4793 72.0107 84.9144 70.7402 83.3103C69.0012 81.1148 66.6591 79.3718 65.2672 76.9086C64.1041 74.8505 63.006 72.7769 61.8769 70.714C61.0714 69.2424 59.1605 71.1814 58.2157 71.7213C54.6282 73.7718 51.0408 75.7618 47.4191 77.7088C44.4898 79.2836 41.0201 79.5011 37.8646 80.5613C37.371 80.7272 37.6749 80.2782 37.846 80.0812C38.5973 79.2156 39.2506 78.2353 40.0501 77.417C41.4069 76.0283 42.8423 74.7565 44.1782 73.35C46.3763 71.0359 48.1808 68.4179 50.1836 65.9504C50.8035 65.1868 48.6409 64.58 48.1383 64.3123C45.6024 62.962 43.0805 61.5561 40.5171 60.2642C39.2003 59.6006 38.0459 58.9381 36.8746 58.0424C35.8851 57.2857 34.6799 56.7057 33.7926 55.8583C33.5782 55.6536 32.7687 55.35 33.0641 55.35C34.1225 55.35 35.1812 55.3413 36.2396 55.35C39.618 55.3777 42.9298 55.8208 46.3264 55.6042C48.2696 55.4802 50.2004 55.4046 52.1169 55.1899C53.0636 55.0839 54.0195 55.0111 54.9749 55.0111" stroke="#AA56B9" stroke-width="3" stroke-linecap="round"/>
<path d="M51.5677 47.5155C51.843 44.1691 54.8115 40.9143 56.5759 38.2783C60.6744 32.155 63.6997 25.3506 67.3894 18.9753C70.0772 14.3312 73.0186 9.49338 74.9119 4.43594C75.0535 4.0577 75.8522 1.69291 75.8522 2.03342C75.8522 14.0136 76.956 26.0272 76.956 37.9883C76.956 39.8073 77.2298 41.6021 77.324 43.4147C77.3569 44.0488 78.6307 43.7749 79.0411 43.8082C81.0797 43.9735 82.8611 44.9177 84.7647 45.5687C88.5447 46.8612 92.3448 48.0258 96.171 49.1724C101.115 50.6542 106.259 51.433 111.155 52.9212C112.788 53.4177 114.388 54.051 115.877 54.8888C117.272 55.6744 119.38 55.7013 116.735 56.2557C109.182 57.839 102.11 61.6096 94.9037 64.2917C92.487 65.1912 89.2505 65.6773 87.095 67.067C86.5226 67.4361 85.0336 67.7309 84.7647 68.3926C84.7406 68.4519 86.4269 70.4459 86.5635 70.7537C88.3786 74.8404 89.7853 79.2874 90.6518 83.6775C91.7897 89.4417 92.8765 95.1654 94.4131 100.827C95.7848 105.881 96.4913 111.171 97.1113 116.36C97.3308 118.197 97.4202 120.122 97.929 121.911C97.9425 121.958 98.4946 123.279 98.0721 122.946C96.4185 121.643 95.1042 119.698 93.5136 118.265C90.1704 115.254 87.382 111.812 84.6012 108.283C80.7951 103.453 75.669 99.6179 72.6225 94.1989C70.077 89.6712 67.6735 85.1093 65.2022 80.5708C63.4393 77.3333 59.2569 81.599 57.1891 82.787C49.3371 87.2979 41.4855 91.676 33.5588 95.9594C27.1474 99.4239 19.5534 99.9024 12.6472 102.235C11.5668 102.6 12.232 101.612 12.6063 101.179C14.2508 99.2744 15.6806 97.1176 17.4305 95.3173C20.3999 92.2623 23.5417 89.4642 26.4656 86.37C31.2765 81.2789 35.2259 75.5193 39.6095 70.0909C40.9661 68.4109 36.2329 67.076 35.1328 66.4871C29.5827 63.5163 24.063 60.4235 18.4525 57.5812C15.5706 56.1212 13.0438 54.6637 10.4804 52.6934C8.31451 51.0286 5.67672 49.7525 3.73467 47.8883C3.2654 47.4379 1.49382 46.7699 2.14024 46.7699C4.45675 46.7699 6.77396 46.7508 9.09034 46.7699C16.4847 46.8308 23.7332 47.8058 31.1671 47.3291C35.4202 47.0564 39.6462 46.8901 43.8409 46.4178C45.9128 46.1846 48.0048 46.0243 50.0959 46.0243" stroke="#AA56B9" stroke-width="3" stroke-linecap="round"/>
</svg>
