<svg width="92" height="74" viewBox="0 0 92 74" fill="none" xmlns="http://www.w3.org/2000/svg">
<path d="M23 38C23 44.3623 23 50.7246 23 57.0869C23 57.7515 23.6303 58.7587 23 58.5" stroke="#AA56B9" stroke-width="4" stroke-linecap="round"/>
<path d="M67 36V60" stroke="#AA56B9" stroke-width="4" stroke-linecap="round"/>
<path d="M2.2093 26.3379C3.86371 26.3379 5.54727 26.2528 7.186 26.5223C9.67086 26.9309 12.0579 27.9894 14.3487 28.9883C17.5337 30.3772 20.4247 32.3962 23.5231 33.978C27.0722 35.79 30.5947 37.4235 34.3253 38.8295C36.5685 39.6749 38.9317 40.6458 40.9996 41.8486C41.6669 42.2368 42.0403 42.8613 42.7205 43.3467C43.7354 44.0708 43.6759 44.18 44.6624 43.7385C47.8359 42.3181 51.2084 41.3169 54.3949 39.8666C57.7761 38.3276 61.0349 36.8913 64.232 34.9806C66.3769 33.6987 68.5567 32.4342 70.8831 31.512C71.8609 31.1243 72.8255 30.7349 73.7784 30.2905C74.136 30.1237 74.856 30.0292 75.1388 29.7489C76.051 28.8449 77.2059 28.3948 78.3946 27.7899C79.1309 27.4152 79.7699 26.9591 80.4179 26.4531C81.9068 25.2905 83.7585 24.6134 85.4411 23.7796C86.0787 23.4637 87.1293 22.6042 87.8945 22.6042C88.4147 22.6042 86.8682 22.3968 86.348 22.3968C85.6451 22.3968 85.0345 22.0452 84.4411 21.6593C80.892 19.3511 77.2368 17.5094 73.2784 15.9666C68.4082 14.0686 64.02 11.5441 59.4762 9.01792C56.3633 7.28731 53.6107 4.92662 50.4414 3.31374C49.7547 2.96426 48.6792 2.66653 48.0926 2.23052C47.1804 1.55255 45.0033 2.56069 44.1275 2.81823C39.6922 4.12242 35.2106 5.37924 31.023 7.35852C27.3427 9.09799 24.2323 11.7624 20.6045 13.5928C18.8443 14.4809 17.0609 15.1998 15.4417 16.3354C13.6632 17.5828 11.9412 18.8522 10.2557 20.2189C8.738 21.4495 6.90131 23.0912 5.13951 24.0101C3.90045 24.6564 3.46386 25.0933 2 25.0933" stroke="#AA56B9" stroke-width="4" stroke-linecap="round"/>
<path d="M23 59C23.1971 61.0765 25.5 67.5 28.0445 68.5875C31.4524 70.9618 35.5952 71.9109 39.757 71.9869C43.5969 72.0569 47.0228 71.8579 50.7737 71.1093C53.177 70.6296 55.4235 70.4362 57.5461 69.1985C59.6733 67.9581 61.3353 66.1967 63.2864 64.7549C64.4474 63.8969 65.6449 62.3607 66 61" stroke="#AA56B9" stroke-width="4" stroke-linecap="round"/>
<path d="M83 26C83 30.6861 84 44.7429 84 40.0568" stroke="#AA56B9" stroke-width="4" stroke-linecap="round"/>
<path d="M83.6582 42C83.5929 42.6305 82.9503 43.0819 82.6552 43.6211C82.2929 44.283 81.9238 44.9647 81.6056 45.6474C81.0148 46.9145 80.3667 48.2416 79.7162 49.4974C79.5171 49.8819 78.5091 51.3661 79.2964 50.9158C80.9187 49.9878 83.8634 50.5105 85.6641 50.5105C86.5456 50.5105 90.6585 51.0247 89.9093 49.2497C89.6462 48.6264 88.7973 48.1149 88.3465 47.6061C87.4818 46.6299 86.6837 45.5717 85.8507 44.5667C85.2186 43.8039 84.5163 43.0487 84.078 42.2026" stroke="#AA56B9" stroke-width="4" stroke-linecap="round"/>
<path d="M17.1363 24.6458C18.2136 24.6458 19.3098 24.5911 20.3769 24.7643C21.995 25.027 23.5493 25.7075 25.041 26.3496C27.115 27.2425 28.9975 28.5404 31.015 29.5573C33.3261 30.7221 35.6198 31.7723 38.049 32.6761C39.5097 33.2196 41.0486 33.8437 42.3951 34.617C42.8296 34.8665 43.0727 35.268 43.5157 35.58C44.1765 36.0455 44.1378 36.1157 44.7802 35.8319C46.8467 34.9188 49.0427 34.2751 51.1176 33.3428C53.3193 32.3535 55.4414 31.4301 57.5231 30.2018C58.9198 29.3777 60.3393 28.5648 61.8541 27.972C62.4909 27.7228 63.1189 27.4724 63.7394 27.1867C63.9723 27.0795 64.4411 27.0188 64.6253 26.8386C65.2192 26.2575 65.9713 25.9681 66.7453 25.5792C67.2247 25.3383 67.6409 25.0451 68.0628 24.7199C69.0323 23.9725 70.2381 23.5372 71.3337 23.0012C71.7489 22.7981 72.433 22.2456 72.9313 22.2456C73.2701 22.2456 72.263 22.1122 71.9243 22.1122C71.4666 22.1122 71.069 21.8862 70.6826 21.6381C68.3715 20.1543 65.9914 18.9703 63.4138 17.9786C60.2426 16.7584 57.3851 15.1355 54.4264 13.5115C52.3994 12.399 50.607 10.8814 48.5432 9.84455C48.0961 9.61988 47.3958 9.42848 47.0138 9.14819C46.4198 8.71235 45.0022 9.36044 44.4319 9.526C41.5437 10.3644 38.6255 11.1724 35.8987 12.4448C33.5022 13.563 31.4769 15.2758 29.1145 16.4525C27.9684 17.0234 26.8071 17.4856 25.7528 18.2156C24.5946 19.0175 23.4734 19.8335 22.3758 20.7121C21.3875 21.5033 20.1915 22.5586 19.0443 23.1494C18.2375 23.5648 17.9532 23.8457 17 23.8457" stroke="#AA56B9" stroke-width="4" stroke-linecap="round"/>
</svg>
