<svg width="65" height="55" viewBox="0 0 65 55" fill="none" xmlns="http://www.w3.org/2000/svg">
<path d="M25.6512 52.894C25.4952 53.362 25.1052 53.83 24.4812 54.298C23.9092 54.766 23.1552 55 22.2192 55H11.2992C10.3112 55 9.47923 54.714 8.80323 54.142C8.17923 53.518 7.81523 52.816 7.71124 52.036L0.925234 2.35V2.116C0.925234 1.648 1.08123 1.258 1.39323 0.945999C1.75723 0.581997 2.17323 0.399996 2.64123 0.399996H16.0572C17.0972 0.399996 17.9292 0.711997 18.5532 1.336C19.2292 1.96 19.6192 2.74 19.7232 3.676L22.2192 27.544L26.7432 15.142C26.8992 14.622 27.2632 14.128 27.8352 13.66C28.4592 13.14 29.2392 12.88 30.1752 12.88H35.4792C36.4152 12.88 37.1692 13.14 37.7412 13.66C38.3652 14.128 38.7552 14.622 38.9112 15.142L43.4352 27.544L45.9312 3.676C46.0352 2.74 46.3992 1.96 47.0232 1.336C47.6992 0.711997 48.5572 0.399996 49.5972 0.399996H63.0132C63.4812 0.399996 63.8712 0.581997 64.1832 0.945999C64.5472 1.258 64.7292 1.648 64.7292 2.116V2.35L57.9432 52.036C57.8392 52.816 57.4492 53.518 56.7732 54.142C56.1492 54.714 55.3432 55 54.3552 55H43.4352C42.4992 55 41.7192 54.766 41.0952 54.298C40.5232 53.83 40.1592 53.362 40.0032 52.894L32.8272 36.436L25.6512 52.894Z" fill="#446940"/>
</svg>
